<svg class="css-1j8o68f" viewBox="0 0 312.5 312.5"><path xmlns="http://www.w3.org/2000/svg" id="SvgjsG10325" fill="#fff" d="M52.3 104.6a52.3 52.3 0 1 1 52.3-52.3 52.4 52.4 0 0 1-52.3 52.3zm0-102.3a50 50 0 1 0 50 50 50 50 0 0 0-50-50z" transform="scale(2.98757)"/><g id="SvgjsG10326" fill="#fff" transform="translate(777.536 -460.266) scale(1.94013)"><path xmlns="http://www.w3.org/2000/svg" d="M-275 299.4c-2.3.9-4.9.5-7.5-1.5-2.7-2-6.4-4.5-9.1-5.8-7.8-3.8-15.6-5.9-24.7-5.9-1.9 0-4.1.1-6.7 1.6-2.5 1.4-7.2 4.3-9.2 4.5-2.4.2-7.4.1-14.6.3-3.4.1-7.4.7-10.9 2.6-4.2 2.2-7.2 5.4-7.2 5.4l-.3.9s3-2.9 7.2-5.1c3.5-1.9 6.6-2.8 10-2.9 7.2-.2 12.2-.1 14.6-.1 1.9 0 6.6-3 9.2-4.4 2.6-1.4 4.7-1.6 6.6-1.5 10.3.3 18.5 2.8 25 5.7 2.8 1.2 6.7 3.6 9.4 5.5 2.3 1.6 5.1 2 7.2 1.2"/><path xmlns="http://www.w3.org/2000/svg" d="M-348.4 296.2c-3.3 0-5.9 2.6-5.9 5.9 0 3.3 2.6 5.9 5.9 5.9 3.3 0 5.9-2.6 5.9-5.9 0-3.3-2.7-5.9-5.9-5.9zm.2 10.8c-2.6 0-4.7-2.1-4.7-4.7s2.1-4.7 4.7-4.7 4.7 2.1 4.7 4.7-2.1 4.7-4.7 4.7zm0-.5c-2.4 0-4.3-1.9-4.3-4.3s1.9-4.3 4.3-4.3 4.3 1.9 4.3 4.3c-.1 2.4-2 4.3-4.3 4.3zM-304.4 296.2c-3.3 0-5.9 2.6-5.9 5.9 0 3.3 2.6 5.9 5.9 5.9s5.9-2.6 5.9-5.9c0-3.3-2.6-5.9-5.9-5.9zm-.2 10.6c-2.6 0-4.7-2.1-4.7-4.7s2.1-4.7 4.7-4.7 4.7 2.1 4.7 4.7-2.1 4.7-4.7 4.7zm0-.4c-2.4 0-4.3-1.9-4.3-4.3s1.9-4.3 4.3-4.3 4.3 1.9 4.3 4.3c-.1 2.4-2 4.3-4.3 4.3zM-342.5 304.9s7.6-.1 16-.2 16.2-.7 16.2-.7l-.9-1.4s-8.2.7-15.2.9c-7 .2-15.1.4-15.1.4l-1 1zM-297.3 301.6s4-.9 7-2.6c1.2-.7 2.6-1.8 2.6-1.8l-2-1.1s-.9.8-2.1 1.5c-3.4 1.9-6.3 2.7-6.3 2.7l.8 1.3zM-355.6 304.9l1-.8s-2.9.1-5.2 0c-2.3-.1-3.8-.4-3.8-.4l-.6.4s2.1.5 4.3.7c2.3.1 4.3.1 4.3.1z"/><path xmlns="http://www.w3.org/2000/svg" d="M-290.7 295.5s-4-2-9.3-2.7c-8-1-12 2.4-12 2.4l-1 1.4s4.6-4.1 12.3-2.7c5 .9 8.5 2.6 8.5 2.6s.5-.3.8-.5c.3-.2.7-.5.7-.5zM-313 295.3s-3.8.2-9.7.3c-5.8 0-12.7-.2-21-.7-8.6-.5-13.1 2.7-13.1 2.7l-.8.7s4.9-3.4 13.1-2.8c8.3.6 15.1 1.4 20.9 1.4 5.8 0 9.6-.2 9.6-.2l1-1.4zM-361.9 300.9c.4-.8 3.1-3.6 4-4.3.9-.6.3 1.1-.3 2.1-.6 1.1-1.7 2.1-2.7 2.4-1 .3-1.2.3-1-.2z"/></g><path id="SvgjsG10327" fill="#fff" d="M21.08 31.16v.2c0 4.2.04 6.64.16 8.44h-.72c-.08-.68-.16-1.12-.28-1.4-2.24 1.36-4.16 1.76-7.6 1.76-7.48 0-12.52-5-12.52-13.04 0-8.16 5.04-13 12.52-13 3.24 0 5.6.6 7.68 1.84.12-.32.08-1.08.2-1.68h.72c-.12 1.72-.16 3.96-.16 8.08v.2a.83.83 0 0 1-.84.76c-.52 0-.88-.4-.88-.88 0-.44.36-.76.84-.88-.28-1.24-.44-2.08-.72-2.76-1.6-3.32-4.52-4.24-6.84-4.24-3.76 0-7.88 1.64-7.88 12.56 0 11.08 4.2 12.56 7.88 12.56 1.72 0 3.92-.6 5.56-2.24.16-.16.36-.36.52-.64.92-1.2 1.2-2.4 1.52-4.68-.52 0-.88-.4-.88-.88 0-.44.36-.88.88-.88s.8.28.84.8zm32.659 5.8c1.04 2.4 1.88 2.52 2.84 2.52v.48h-8.36v-.48c1.96 0 1.6-2.08.76-4.08l-1.16-3.2h-9.56c-.96 2.88-2.68 7.48 2.44 7.28v.48h-8.12v-.48c1.4 0 2.28-.24 5.44-8.6l5.36-14.64.68-2.04h5c.48 0 .8.4.8.88s-.4.84-.88.84c-.44 0-.88-.36-.88-.84 0-.16.08-.24.12-.36-1.4.2-1.48 1.08-1.04 2.56 0 .04.04.36 6.28 18.8.12.32.16.52.2.68.04.12.04.16.08.2zm-6.4-6.16-4.32-12-4.36 12h8.68zm-8.96.92h9.32l-.24-.44h-8.96zm47.619 4.56c.64 2.72 3 3.2 3.92 3.2V40h-2.76c-4.64 0-4.2-.04-6.2-8-1.08-3.84-4.72-3.84-5.72-3.84h-1.68v8.04c0 2.52.76 3.28 2.32 3.28V40h-8.2v-.52c1.6 0 2.28-.72 2.28-3.76V17.48c0-1.88-.36-2.56-1.44-2.72.04.08.04.2.04.32 0 .48-.36.88-.88.88-.48 0-.84-.4-.84-.88s.36-.88.84-.88h7c7.32 0 11.32.92 11.32 7 0 5-2.84 6.48-6.84 6.68 2.52.2 4.92.32 6.84 8.4zm-12.44-8.6h1.12c4.12 0 7.32.04 7.32-6.48 0-6.6-3.4-6.48-7.32-6.48h-1.12v12.96zm45.739 4.68h.48V40h-18.44v-.48c1.56 0 2-1.24 2-3.8v-17.6c0-1.88-.24-2.96-1.16-3.32 0 .04.04.12.04.24 0 .48-.4.84-.88.84s-.88-.36-.88-.84.4-.88.88-.88h17.96v6.64c0 .6-.28.88-.88.88-.48 0-.84-.36-.84-.88s.36-.88.84-.88c.12 0 .24 0 .32.04-.96-5.28-6.8-5.32-9.64-5.32h-1.96v11.48h2.32c1 0 4.88.12 5.08-2.92h.48v3.44h-8v.64h8v3.44h-.48c-.2-3.08-4.12-2.92-5.08-2.92h-2.32v11.72h1.64c3.32 0 9.72.2 10.52-7.16zm34.179 3.92c2 3.08 2.96 3.2 4.4 3.32v.4h-9.4v-.4c2.52-.44.76-3.16.08-4.2l-4.24-6.72-1.96 3.04c-2.24 4.24-4.88 7.88 0 7.88v.4h-9.44v-.4c1.92 0 3.36.04 9-8.28l2.12-3.08-4.52-6.64c-.84-1.24-1.64-2.44-2.4-3.64-1.72-2.44-2.72-3.08-3.72-3.24.04.12.08.2.08.36 0 .48-.4.84-.88.84s-.88-.36-.88-.84.36-.88.84-.88h10.12c.44 0 .88.36.88.88 0 .48-.44.84-.88.84-.48 0-.92-.36-.92-.84 0-.12.08-.2.08-.24-.92.36-1.24 1.52.4 4.08l3.88 6.04 1.88-2.76c1.92-3.64 4.4-7.52-.52-7.52v-.48h10.2v.48c-2.2 0-4.12-.08-9.32 7.88l-1.92 2.88c.88 1.28 2.56 4 4.16 6.36.88 1.4 1.84 2.92 2.88 4.48z" transform="matrix(1.18854 0 0 1.18854 55.857 140.218)"/><path id="SvgjsG10328" fill="#fff" d="M10.54 15.58v.1c0 2.1.02 3.32.08 4.22h-.36c-.04-.34-.08-.56-.14-.7-1.12.68-2.08.88-3.8.88-3.74 0-6.26-2.5-6.26-6.52 0-4.08 2.52-6.5 6.26-6.5 1.62 0 2.8.3 3.84.92.06-.16.04-.54.1-.84h.36c-.06.86-.08 1.98-.08 4.04v.1c-.02.22-.2.38-.42.38-.26 0-.44-.2-.44-.44 0-.22.18-.38.42-.44-.14-.62-.22-1.04-.36-1.38-.8-1.66-2.26-2.12-3.42-2.12-1.88 0-3.94.82-3.94 6.28 0 5.54 2.1 6.28 3.94 6.28.86 0 1.96-.3 2.78-1.12.08-.08.18-.18.26-.32.46-.6.6-1.2.76-2.34-.26 0-.44-.2-.44-.44 0-.22.18-.44.44-.44s.4.14.42.4zm21.423 2.9c.52 1.2.94 1.26 1.42 1.26v.24h-4.18v-.24c.98 0 .8-1.04.38-2.04l-.58-1.6h-4.78c-.48 1.44-1.34 3.74 1.22 3.64v.24h-4.06v-.24c.7 0 1.14-.12 2.72-4.3l2.68-7.32.34-1.02h2.5c.24 0 .4.2.4.44s-.2.42-.44.42c-.22 0-.44-.18-.44-.42 0-.08.04-.12.06-.18-.7.1-.74.54-.52 1.28 0 .02.02.18 3.14 9.4.06.16.08.26.1.34.02.06.02.08.04.1zm-3.2-3.08-2.16-6-2.18 6h4.34zm-4.48.46h4.66l-.12-.22h-4.48zm28.904 2.28c.32 1.36 1.5 1.6 1.96 1.6V20h-1.38c-2.32 0-2.1-.02-3.1-4-.54-1.92-2.36-1.92-2.86-1.92h-.84v4.02c0 1.26.38 1.64 1.16 1.64V20h-4.1v-.26c.8 0 1.14-.36 1.14-1.88V8.74c0-.94-.18-1.28-.72-1.36.02.04.02.1.02.16 0 .24-.18.44-.44.44-.24 0-.42-.2-.42-.44s.18-.44.42-.44h3.5c3.66 0 5.66.46 5.66 3.5 0 2.5-1.42 3.24-3.42 3.34 1.26.1 2.46.16 3.42 4.2zm-6.22-4.3h.56c2.06 0 3.66.02 3.66-3.24 0-3.3-1.7-3.24-3.66-3.24h-.56v6.48zm43.727 2.34h.24V20h-9.22v-.24c.78 0 1-.62 1-1.9v-8.8c0-.94-.12-1.48-.58-1.66 0 .02.02.06.02.12 0 .24-.2.42-.44.42s-.44-.18-.44-.42.2-.44.44-.44h8.98v3.32c0 .3-.14.44-.44.44-.24 0-.42-.18-.42-.44s.18-.44.42-.44c.06 0 .12 0 .16.02-.48-2.64-3.4-2.66-4.82-2.66h-.98v5.74h1.16c.5 0 2.44.06 2.54-1.46h.24v1.72h-4v.32h4v1.72h-.24c-.1-1.54-2.06-1.46-2.54-1.46h-1.16v5.86h.82c1.66 0 4.86.1 5.26-3.58zm22.183 1.96c1 1.54 1.48 1.6 2.2 1.66v.2h-4.7v-.2c1.26-.22.38-1.58.04-2.1l-2.12-3.36-.98 1.52c-1.12 2.12-2.44 3.94 0 3.94v.2h-4.72v-.2c.96 0 1.68.02 4.5-4.14l1.06-1.54-2.26-3.32c-.42-.62-.82-1.22-1.2-1.82-.86-1.22-1.36-1.54-1.86-1.62.02.06.04.1.04.18 0 .24-.2.42-.44.42s-.44-.18-.44-.42.18-.44.42-.44h5.06c.22 0 .44.18.44.44 0 .24-.22.42-.44.42-.24 0-.46-.18-.46-.42 0-.06.04-.1.04-.12-.46.18-.62.76.2 2.04l1.94 3.02.94-1.38c.96-1.82 2.2-3.76-.26-3.76V7.1h5.1v.24c-1.1 0-2.06-.04-4.66 3.94l-.96 1.44c.44.64 1.28 2 2.08 3.18.44.7.92 1.46 1.44 2.24zm20.784-11.06h3.26c.24 0 .44.2.44.46 0 .22-.2.4-.44.4s-.44-.18-.44-.4v-.08c-.46.22-.46.76-.46 2.18v7.86c0 1.5-.04 2 .9 2.26V20h-3.26v-.24c.54-.16.54-.62.54-2.26v-3.16h-5.04v3.16c0 1.86.02 2.1.56 2.26V20h-3.26v-.24c.96-.26.9-.48.9-2.26V9.64c0-1.34-.02-1.9-.48-2.16v.06c0 .22-.2.4-.42.4-.24 0-.46-.18-.46-.4 0-.26.22-.46.46-.46h3.26v.24c-.54.16-.56.52-.56 2.32v3.82h5.04V9.64c0-1.8 0-2.16-.54-2.32v-.24zm.54 6.94v-.28h-5.04v.28h5.04zm18.743-6.04c-.22 0-.44-.2-.44-.42 0-.08.04-.12.04-.18-.54.14-.88.46-.88 1.4v9.26c0 1.28.54 1.72 1.28 1.72V20h-4.44v-.24c.78 0 1.28-.44 1.28-1.72V8.78c0-.94-.3-1.3-.88-1.4.02.02.02.08.02.18 0 .22-.18.42-.42.42s-.44-.2-.44-.42c0-.26.2-.46.44-.46h4.44c.24 0 .46.2.46.46 0 .22-.22.42-.46.42zm16.704 5.38c1.2 0 3.92.24 3.92 3.36 0 3.2-2.38 3.28-5.58 3.28h-3.68v-.16c.8 0 1.08-.76 1.08-2.04V9.24c0-.94-.18-1.68-.68-1.94.02.1.04.18.04.2 0 .24-.2.42-.44.42s-.44-.18-.44-.42c0-.26.2-.44.44-.44h3.68c2.58 0 4.72.16 4.72 3.16 0 2.86-2.7 3.14-3.06 3.14zm-2.36-6.06v6.04h1.1c1.12 0 2.34-.36 2.34-3.16 0-2.7-1.54-2.88-2.64-2.88h-.8zm0 12.46h.8c1.76 0 3.44.04 3.44-3.12 0-2.98-1.8-3.06-3.14-3.06h-1.1v6.18zm21.543-11.78c-.22 0-.44-.2-.44-.42 0-.08.04-.12.04-.18-.54.14-.88.46-.88 1.4v9.26c0 1.28.54 1.72 1.28 1.72V20h-4.44v-.24c.78 0 1.28-.44 1.28-1.72V8.78c0-.94-.3-1.3-.88-1.4.02.02.02.08.02.18 0 .22-.18.42-.42.42s-.44-.2-.44-.42c0-.26.2-.46.44-.46h4.44c.24 0 .46.2.46.46 0 .22-.22.42-.46.42zm22.344-.86v3.24c0 .24-.18.44-.42.44s-.44-.2-.44-.44.2-.44.44-.44c.06 0 .1.02.16.02-.32-2.56-3.1-2.58-3.34-2.58h-1.1v10.86c0 1.2.58 1.54 1.36 1.54V20h-4.48v-.24c.78 0 1.32-.34 1.32-1.54V7.36h-1.08c-.54 0-3.08.02-3.34 2.58.04-.02.1-.02.16-.02.26 0 .44.18.44.42 0 .3-.14.44-.44.44-.24 0-.42-.18-.42-.44V7.12h11.18zm15.803.86c-.22 0-.44-.2-.44-.42 0-.08.04-.12.04-.18-.54.14-.88.46-.88 1.4v9.26c0 1.28.54 1.72 1.28 1.72V20h-4.44v-.24c.78 0 1.28-.44 1.28-1.72V8.78c0-.94-.3-1.3-.88-1.4.02.02.02.08.02.18 0 .22-.18.42-.42.42s-.44-.2-.44-.42c0-.26.2-.46.44-.46h4.44c.24 0 .46.2.46.46 0 .22-.22.42-.46.42zm16.904-.84c3.98 0 5.88 3.04 5.88 6.64s-1.9 6.44-5.88 6.44c-3.96 0-5.88-2.84-5.88-6.44s1.92-6.64 5.88-6.64zm0 .24c-2.14 0-3.78 1.44-3.78 6.34h7.56c0-4.9-1.64-6.34-3.78-6.34zm3.78 6.56h-7.56v.28h7.56v-.28zm-3.78 6.04c2.06 0 3.62-1.1 3.78-5.52h-7.56c.16 4.42 1.7 5.52 3.78 5.52zm25.403-12.9h5.26v.2c-2.68 0-2.62 2.66-2.62 4.36V20h-.58l-7.8-10.06v5.48c0 1.62 0 4.34 2.4 4.34V20h-5.32v-.24c2.68 0 2.68-2.7 2.68-4.34V9.68l-.76-.98c-.62-.78-1.04-1.12-1.38-1.28v.1c0 .24-.22.42-.46.42s-.44-.18-.44-.42c0-.26.2-.44.44-.44h3.08l7.9 10.24v-5.68c0-1.7.06-4.36-2.4-4.36v-.2z" transform="matrix(.72864 0 0 .72864 55.956 202.856)"/></svg>